# xmcd
#
# Track frame offsets: 
#        150
#        25677
#        47663
#        61336
#        80493
#        101366
#        132165
#        155630
#        174977
#        199230
#        217595
#        249210
#
# Disc length: 3552 seconds
#
# Revision: 2
# Processed by: cddbd v1.5.2PL0 Copyright (c) Steve Scherf et al.
# Submitted via: ExactAudioCopyFreeDBPlugin 1.0
#
DISCID=900dde0c
DTITLE=Boz Scaggs - Fade Into Light
DYEAR=2005
DGENRE=Blues
TTITLE0=Lowdown (Unplugged)
TTITLE1=Some Things Happen
TTITLE2=Just Go
TTITLE3=Love T.K.O.
TTITLE4=Fade Into Light
TTITLE5=Harbor Lights
TTITLE6=Lost It
TTITLE7=Time
TTITLE8=Sierra
TTITLE9=We're All Alone
TTITLE10=Simone
TTITLE11=I'll Be The One
EXTD=
EXTT0=
EXTT1=
EXTT2=
EXTT3=
EXTT4=
EXTT5=
EXTT6=
EXTT7=
EXTT8=
EXTT9=
EXTT10=
EXTT11=
PLAYORDER=
